<svg width="175px" height="175px" viewBox="-2.4 -2.4 28.80 28.80" fill="none" xmlns="http://www.w3.org/2000/svg" stroke="#ffffff" stroke-width="1.9200000000000004" transform="rotate(0)"><g id="SVGRepo_bgCarrier" stroke-width="0"></g><g id="SVGRepo_tracerCarrier" stroke-linecap="round" stroke-linejoin="round" stroke="#CCCCCC" stroke-width="0.144"></g><g id="SVGRepo_iconCarrier"> <path fill-rule="evenodd" clip-rule="evenodd" d="M13.75 2C13.75 4.8995 16.1005 7.25 19 7.25C19.4142 7.25 19.75 7.58579 19.75 8C19.75 8.41421 19.4142 8.75 19 8.75C16.8795 8.75 14.9875 7.77225 13.75 6.243V18C13.75 20.6234 11.6234 22.75 9 22.75C6.37665 22.75 4.25 20.6234 4.25 18C4.25 15.3766 6.37665 13.25 9 13.25C10.2572 13.25 11.4003 13.7384 12.25 14.5359V2H13.75ZM12.25 18C12.25 16.2051 10.7949 14.75 9 14.75C7.20507 14.75 5.75 16.2051 5.75 18C5.75 19.7949 7.20507 21.25 9 21.25C10.7949 21.25 12.25 19.7949 12.25 18Z" fill="#ffffff"></path> </g></svg>